<svg width="157" height="33" viewBox="0 0 157 33" fill="none" xmlns="http://www.w3.org/2000/svg">
<path fill-rule="evenodd" clip-rule="evenodd" d="M21.0724 23.6433C22.6992 22.5543 23.958 20.9564 24.6214 19.0766H17.5239V12.9722H31.1143H31.7088C31.8992 13.9602 32 14.9803 32 16.0244C32 23.0988 27.4229 29.1014 21.0729 31.2262V23.6429L21.0724 23.6433Z" fill="#FE5A01"/>
<path fill-rule="evenodd" clip-rule="evenodd" d="M15.9998 0C20.03 0 23.7116 1.49323 26.5251 3.95695L21.6577 8.83206C20.1007 7.60228 18.136 6.86794 15.9998 6.86794C10.9507 6.86794 6.85711 10.9675 6.85711 16.025C6.85711 20.9826 10.7907 25.0196 15.703 25.1766L17.9072 29.0002L19.4484 31.6746C18.3376 31.9195 17.1837 32.0491 15.9993 32.0491C7.16361 32.0491 0 24.8742 0 16.0246C0 7.17492 7.16361 0 15.9993 0L15.9998 0Z" fill="#FE5A01"/>
<path d="M49.9562 11.611V10.1191H52.5175V20.6053C52.5175 22.0767 52.0519 23.2322 51.1228 24.0735C50.1921 24.9143 48.8745 25.3333 47.1674 25.3333C45.6569 25.3333 44.4718 24.9973 43.6114 24.324C42.7509 23.6512 42.2786 22.7274 42.1946 21.5497L44.7952 21.5513C44.9206 22.7135 45.7255 23.2955 47.2083 23.2955C48.0759 23.2955 48.7364 23.0709 49.1907 22.6226C49.645 22.1743 49.8725 21.522 49.8725 20.6686V19.3019C49.089 20.3803 47.9835 20.9195 46.557 20.9195C45.088 20.9195 43.9067 20.408 43.0107 19.3849C42.1159 18.3907 41.6683 17.0588 41.6683 15.3913C41.6683 13.7108 42.1159 12.3731 43.0107 11.3776C43.8916 10.3679 45.0679 9.86475 46.5349 9.86475C48.0617 9.866 49.2016 10.4484 49.9558 11.6106L49.9562 11.611ZM47.1452 18.7355C48.0261 18.7355 48.7117 18.4418 49.202 17.8531C49.6922 17.2641 49.9361 16.445 49.9361 15.3947C49.9361 14.3439 49.691 13.5248 49.202 12.9362C48.7117 12.3471 48.0278 12.0538 47.1452 12.0538C46.2914 12.0538 45.6171 12.3513 45.1198 12.9471C44.6228 13.5428 44.3752 14.3661 44.3752 15.4169C44.3752 16.4538 44.6228 17.2662 45.1198 17.8548C45.6171 18.4409 46.2914 18.7359 47.1452 18.7359V18.7355Z" fill="black"/>
<path d="M64.4822 20.9627H61.8389L61.5457 19.6388C60.8187 20.6896 59.6571 21.215 58.0625 21.215C56.8728 21.215 55.9262 20.9284 55.2193 20.3532C54.5132 19.7783 54.1593 18.9794 54.1593 17.9579C54.1593 15.9348 55.5397 15.1643 57.2397 14.7068C58.6686 14.3222 60.6974 13.9577 61.4821 13.7469V13.1872C61.4821 12.7251 61.3324 12.3845 61.0304 12.1679C60.7304 11.9513 60.2222 11.8427 59.5094 11.8427C58.7397 11.8427 58.1876 11.9722 57.8517 12.2311C57.5158 12.4909 57.32 12.9358 57.2639 13.5659H54.6634C54.8173 11.1008 56.4395 9.86816 59.5316 9.86816C62.5383 9.86816 64.043 10.9533 64.043 13.1252V18.904L64.4826 20.9627H64.4822ZM58.6916 19.3229C59.5161 19.3229 60.1879 19.0954 60.7058 18.6404C61.2232 18.1854 61.4821 17.5306 61.4821 16.6755V15.6884C60.6355 15.9159 57.8144 16.386 57.3179 16.7915C57.0176 17.0366 56.8661 17.3898 56.8661 17.8532C56.8661 18.3149 57.023 18.6765 57.3384 18.9354C57.6521 19.196 58.1052 19.3225 58.6916 19.3225V19.3229Z" fill="black"/>
<path d="M68.8103 20.9629H66.1658V6H68.8103V20.9629Z" fill="black"/>
<path d="M75.3719 21.2567C72.2107 21.2567 70.5601 20.0102 70.42 17.5157L73.0013 17.517C73.0716 18.1903 73.2916 18.6658 73.6618 18.9456C74.032 19.2255 74.616 19.3659 75.4145 19.3659C76.8405 19.3659 77.5537 18.9318 77.5537 18.0633C77.5537 17.6716 77.3998 17.3695 77.0923 17.1596C76.784 16.9501 76.2319 16.775 75.435 16.6346L74.1973 16.4247C71.8334 16.0334 70.6509 14.9399 70.6509 13.1472C70.6509 12.1241 71.0416 11.3226 71.8246 10.7411C72.6081 10.1591 73.7137 9.86963 75.1401 9.86963C78.2305 9.86963 79.8264 11.0955 79.9242 13.5473L77.4282 13.5444C77.4006 12.9004 77.1969 12.4412 76.82 12.1681C76.4427 11.8953 75.8826 11.7587 75.1418 11.7587C73.8835 11.7587 73.2527 12.179 73.2527 13.019C73.2527 13.3831 73.3933 13.6667 73.6727 13.8695C73.9521 14.0718 74.4135 14.2306 75.0577 14.3421L76.4222 14.552C77.7374 14.7904 78.6911 15.1683 79.2859 15.6869C79.8803 16.2056 80.1777 16.9267 80.1777 17.8521C80.1777 18.9444 79.7578 19.7852 78.9195 20.3743C78.0812 20.963 76.8957 21.2567 75.3719 21.2567Z" fill="black"/>
<path d="M87.2806 10.1192V12.1365H85.1414V17.9999C85.1414 18.3502 85.2363 18.5953 85.425 18.7348C85.6136 18.8751 85.9315 18.9447 86.3791 18.9447L87.281 18.946V20.9633C87.1229 20.9783 86.974 20.9938 86.8334 21.0035C86.4632 21.0324 86.1491 21.0475 85.896 21.0475C84.7218 21.0475 83.8639 20.8267 83.3255 20.3859C82.7872 19.9443 82.5173 19.2396 82.5173 18.2731V12.137H80.8391V10.1196H82.5186V6.96777H85.1414V10.1196H87.2806V10.1192Z" fill="black"/>
<path d="M98.7375 15.7294V16.3599H90.6396C90.737 17.285 91.0273 17.9813 91.5096 18.4502C91.9924 18.919 92.6382 19.1548 93.4506 19.1548C94.654 19.1548 95.4785 18.6378 95.9261 17.5992L98.4648 17.6005C98.1853 18.7078 97.5972 19.586 96.7025 20.2383C95.8081 20.8889 94.7159 21.2157 93.4301 21.2157C91.8221 21.2157 90.5212 20.6975 89.5269 19.6601C88.5342 18.6236 88.0377 17.2502 88.0377 15.5417C88.0377 13.8319 88.528 12.4598 89.5068 11.4229C90.4994 10.3864 91.7937 9.86768 93.3874 9.86768C95.0246 9.86768 96.3256 10.4069 97.2906 11.4849C98.2569 12.5629 98.7375 13.9781 98.7375 15.729V15.7294ZM93.3665 11.9269C91.8133 11.9269 90.9119 12.7887 90.6596 14.5123L96.0938 14.5106C95.9826 13.7125 95.6877 13.0824 95.2129 12.619C94.7381 12.1569 94.1224 11.9269 93.3665 11.9269Z" fill="black"/>
<path d="M103.099 20.9629H100.454V6H103.099V20.9629Z" fill="black"/>
<path d="M115.516 15.7294V16.3599H107.418C107.516 17.285 107.806 17.9813 108.288 18.4502C108.771 18.919 109.417 19.1548 110.229 19.1548C111.432 19.1548 112.257 18.6378 112.705 17.5992L115.243 17.6005C114.963 18.7078 114.376 19.586 113.481 20.2383C112.586 20.8889 111.494 21.2157 110.209 21.2157C108.601 21.2157 107.3 20.6975 106.305 19.6601C105.313 18.6236 104.816 17.2502 104.816 15.5417C104.816 13.8319 105.306 12.4598 106.285 11.4229C107.278 10.3864 108.572 9.86768 110.166 9.86768C111.803 9.86768 113.104 10.4069 114.069 11.4849C115.034 12.5629 115.516 13.9781 115.516 15.729V15.7294ZM110.144 11.9269C108.591 11.9269 107.689 12.7887 107.437 14.5123L112.871 14.5106C112.759 13.7125 112.465 13.0824 111.99 12.619C111.515 12.1569 110.898 11.9269 110.144 11.9269Z" fill="black"/>
<path d="M137.686 19.6596C136.678 20.6965 135.35 21.2152 133.699 21.2152C132.048 21.2152 130.72 20.6969 129.712 19.6596C128.69 18.6394 128.18 17.2643 128.18 15.5411C128.18 13.8175 128.69 12.4454 129.712 11.4223C130.72 10.3858 132.048 9.8667 133.699 9.8667C135.35 9.8667 136.678 10.3783 137.686 11.4014C138.694 12.4245 139.197 13.8033 139.197 15.5411C139.197 17.2509 138.693 18.623 137.686 19.6596ZM131.633 18.1266C132.13 18.729 132.818 19.0299 133.7 19.0299C134.581 19.0299 135.269 18.7249 135.766 18.1153C136.263 17.5061 136.511 16.648 136.511 15.5411C136.511 14.4338 136.263 13.5758 135.766 12.9666C135.269 12.357 134.581 12.052 133.7 12.052C132.818 12.052 132.13 12.3528 131.633 12.9557C131.136 13.5582 130.888 14.42 130.888 15.5411C130.888 16.6619 131.136 17.5237 131.633 18.1266Z" fill="black"/>
<path d="M153.224 9.8667C154.413 9.8667 155.34 10.2174 156.003 10.9175C156.667 11.618 157 12.5778 157 13.7966V20.9625H154.357V14.2172C154.357 12.8434 153.735 12.1568 152.49 12.1568C151.818 12.1568 151.277 12.3981 150.864 12.8824C150.451 13.3659 150.245 14.0697 150.245 14.9948V20.9625H147.622V14.2172C147.622 12.8434 146.993 12.1568 145.733 12.1568C145.075 12.1568 144.541 12.3981 144.128 12.8824C143.715 13.3659 143.509 14.0697 143.509 14.9948V20.9625H140.867V10.1189H143.426V11.6745C144.167 10.4692 145.195 9.8667 146.51 9.8667C148.161 9.8667 149.28 10.54 149.867 11.8844C150.678 10.54 151.798 9.8667 153.225 9.8667H153.224Z" fill="black"/>
<path d="M116.714 15.5411V15.5407C116.714 13.8309 117.204 12.4588 118.183 11.4219C119.176 10.3854 120.47 9.8667 122.064 9.8667C123.658 9.8667 124.952 10.385 125.945 11.4219C126.63 12.1475 127.014 13.0299 127.099 14.0907H124.456C124.405 13.6705 124.247 13.2658 124.007 12.9557C123.54 12.3528 122.893 12.052 122.064 12.052C121.235 12.052 120.588 12.3528 120.12 12.9557C119.653 13.5582 119.42 14.4196 119.42 15.5407V15.5411C119.42 16.6623 119.653 17.5237 120.12 18.1262C120.588 18.729 121.235 19.0299 122.064 19.0299C122.893 19.0299 123.54 18.729 124.007 18.1262C124.247 17.8161 124.405 17.4118 124.456 16.9912H127.099C127.014 18.052 126.63 18.9343 125.945 19.66C124.952 20.6965 123.658 21.2152 122.064 21.2152C120.469 21.2152 119.175 20.6969 118.183 19.66C117.204 18.623 116.714 17.2509 116.714 15.5411Z" fill="black"/>
</svg>
