<svg width="25" height="25" viewBox="0 0 25 25" fill="none" xmlns="http://www.w3.org/2000/svg">
<path d="M12.6666 0.666504C19.2941 0.666504 24.6666 6.039 24.6666 12.6665C24.6666 19.294 19.2941 24.6665 12.6666 24.6665C6.03913 24.6665 0.666626 19.294 0.666626 12.6665C0.666626 6.039 6.03913 0.666504 12.6666 0.666504ZM16.8061 17.558C17.0266 16.881 18.0611 10.1315 18.1886 8.8015C18.2271 8.3985 18.1001 8.131 17.8506 8.0115C17.5491 7.8665 17.1026 7.939 16.5841 8.126C15.8736 8.382 6.78913 12.2395 6.26413 12.4625C5.76663 12.674 5.29563 12.9045 5.29563 13.2385C5.29563 13.4735 5.43513 13.6055 5.81913 13.7425C6.21863 13.885 7.22513 14.19 7.81963 14.354C8.39213 14.512 9.04363 14.375 9.40863 14.148C9.79563 13.9075 14.2636 10.918 14.5841 10.656C14.9046 10.394 15.1601 10.7295 14.8981 10.992C14.6361 11.254 11.5696 14.2305 11.1651 14.6425C10.6741 15.143 11.0226 15.6615 11.3521 15.869C11.7281 16.106 14.4336 17.9205 14.8411 18.2115C15.2486 18.5025 15.6616 18.6345 16.0401 18.6345C16.4186 18.6345 16.6176 18.1365 16.8061 17.558Z" fill="#98A2B3"/>
</svg>
